<svg xmlns="http://www.w3.org/2000/svg" viewBox="0 0 31 31"><path d="M1 1h7v7h-7zM10 1h3v2h1v1h-2v1h-2v1h1v1h-1v2h-1v-6h1zM16 1h2v1h-2zM19 1h3v1h-2v1h-2v-1h1zM23 1h7v7h-7zM2 2v5h5v-5zM11 2v1h1v-1zM24 2v5h5v-5zM3 3h3v3h-3zM15 3h1v1h-1zM17 3h1v1h1v1h1v-2h2v1h-1v2h-2v1h-1v1h-1v-1h-1v1h-1v-1h-1v-2h3v1h1v-1h-1zM25 3h3v3h-3zM12 5h1v2h-1zM11 7h1v1h-1zM13 7h1v1h1v1h-1v1h-1zM19 7h1v1h-1zM21 7h1v2h-1zM16 8h1v2h1v-1h1v1h1v-1h1v1h1v1h1v1h1v1h-2v-1h-1v-1h-5v-1h-1v-1h1zM1 9h1v3h-1zM3 9h5v1h-2v2h-1v-2h-1v1h-1zM10 9h1v1h1v1h-1v2h2v2h1v-1h3v1h1v-2h2v1h2v2h1v1h-2v-2h-2v1h-2v1h2v1h-4v-1h1v-1h-1v1h-1v2h-3v-1h2v-2h-1v-2h-1v4h-1v-1h-1v-1h1v-1h-1v1h-2v-1h1v-1h-2v-1h2v-1h1v1h1v-1h-1v-1h1zM23 9h5v1h-1v1h1v1h-1v1h-2v-1h-1v-1h-1zM8 10h1v1h-1zM28 10h2v1h-2zM7 11h1v1h-1zM12 11h1v1h-1zM3 12h2v1h-1v1h1v1h-2zM15 12h1v1h-1zM17 12h1v1h-1zM28 12h2v3h-2v1h-2v1h-1v-2h-2v-1h4v-1h1v1h1v-1h-1zM1 13h1v2h-1zM5 15h1v1h-1zM1 16h1v6h-1zM3 16h2v1h-2zM29 16h1v3h-2v1h-1v-1h-3v1h-3v-1h-2v-1h1v-1h1v1h1v1h1v-1h1v-1h1v1h2v-1h1v1h1zM5 17h1v1h-1zM7 17h1v1h-1zM3 18h1v1h-1zM8 18h1v1h-1zM4 19h1v1h2v1h-4v-1h1zM7 19h1v1h-1zM16 19h3v1h-1v1h-1v-1h-1zM8 20h2v1h-1v1h-2v-1h1zM12 20h1v4h-1v-2h-1v1h-2v-1h1v-1h2zM15 20h1v1h-1zM25 20h2v1h1v1h1v-1h1v2h-3v-1h-1v1h1v2h-1v1h-1v1h1v-1h1v-1h2v1h1v1h-1v2h-1v-1h-1v1h1v1h-4v-2h-1v1h-2v-1h-1v-1h1v-2h-1v-2h1v-1h-1v-1h5zM18 21h1v1h-1zM14 22h2v1h1v1h1v1h1v1h-1v2h-3v-1h2v-1h-2v-1h1v-1h-1v1h-1zM22 22v3h3v-3zM1 23h7v7h-7zM23 23h1v1h-1zM2 24v5h5v-5zM9 24h2v1h1v1h-2v2h-1zM3 25h3v3h-3zM13 25h1v1h-1zM19 26h1v1h-1zM22 26v1h2v-1zM12 27h1v1h-1zM11 28h1v1h-1zM14 28h1v1h4v1h-5zM9 29h1v1h-1zM12 29h1v1h-1zM20 29h1v1h-1z"/></svg>