<svg xmlns="http://www.w3.org/2000/svg" viewBox="0 0 23 23"><path d="M1 1h7v7h-7zM9 1h1v1h-1zM12 1h1v1h1v1h-1v2h1v3h-1v-2h-1v-3h-1v1h-1v-2h2zM15 1h7v7h-7zM2 2v5h5v-5zM16 2v5h5v-5zM3 3h3v3h-3zM17 3h3v3h-3zM9 4h1v1h1v1h-1v2h1v3h-1v1h-3v-1h2v-1h-2v-1h2zM11 6h1v2h-1zM1 9h1v2h-1zM5 9h1v1h-1zM13 9h6v1h-3v1h-1v-1h-1v1h1v1h-1v1h-1v1h-1v-2h1zM21 9h1v2h-1v1h1v3h-2v-1h-1v-1h1v-2h-1v-1h2zM3 10h1v1h1v1h1v2h-1v-1h-1v-1h-1zM11 11h1v1h-1zM16 11h2v1h1v1h-2v-1h-1zM2 12h1v1h-1zM15 12h1v2h2v1h-1v1h1v-1h1v2h2v1h1v1h-2v2h-1v-1h-3v-2h2v-1h-2v-1h-1v-1h-2v-1h1v-1h1zM1 13h1v1h-1zM7 13h4v2h2v2h-1v-1h-1v1h-1v-1h-1v-2h-2zM1 15h7v7h-7zM2 16v5h5v-5zM3 17h3v3h-3zM9 17h1v1h-1zM11 17h1v1h-1zM13 17h1v2h-1zM15 17h1v1h-1zM12 19h1v2h-1zM21 20h1v2h-2v-1h1zM9 21h1v1h-1zM11 21h1v1h-1zM13 21h3v1h-3zM17 21h2v1h-2z"/></svg>