<svg xmlns="http://www.w3.org/2000/svg" viewBox="0 0 23 23"><path d="M1 1h7v7h-7zM11 1h1v1h-1zM15 1h7v7h-7zM2 2v5h5v-5zM9 2h1v1h-1zM13 2h1v4h-1v1h-1v-1h-1v-1h1v-1h1zM16 2v5h5v-5zM3 3h3v3h-3zM17 3h3v3h-3zM9 5h1v1h-1zM10 6h1v1h-1zM9 7h1v1h-1zM11 7h1v3h-1v2h-1v1h-1v-1h-2v1h2v1h-4v-2h-2v1h-2v-1h1v-1h-1v-2h1v1h1v-1h1v1h1v-1h1v2h3v-1h1v-2h1zM13 7h1v1h-1zM7 9h1v1h-1zM13 9h1v1h-1zM17 9h1v1h1v1h1v-2h1v2h1v3h-1v-2h-2v1h-1v-1h-1v-1h-1v-1h1zM12 10h1v2h1v1h-1v2h-1v-2h-1v-1h1zM14 10h1v1h-1zM15 12h1v3h-1v-1h-1v-1h1zM17 13h1v1h1v-1h1v1h1v1h-1v1h-1v-1h-2zM9 14h1v1h-1zM1 15h7v7h-7zM11 15h1v1h-1zM13 15h1v1h-1zM2 16v5h5v-5zM12 16h1v1h-1zM15 16h2v1h-2zM18 16h1v1h1v1h-2v1h1v1h-1v1h-1v-4h1zM20 16h1v1h-1zM3 17h3v3h-3zM9 17h3v1h1v1h-1v1h1v1h-2v-3h-2zM13 17h2v1h-2zM15 18h1v2h-1zM20 18h1v1h-1zM9 19h1v1h-1zM13 19h1v1h-1zM21 19h1v3h-1v-1h-2v-1h2zM14 20h1v1h-1zM9 21h2v1h-2zM13 21h1v1h-1zM15 21h1v1h-1zM18 21h1v1h-1z"/></svg>
