<svg xmlns="http://www.w3.org/2000/svg" viewBox="0 0 23 23"><path d="M1 1h7v7h-7zM9 1h2v1h-2zM15 1h7v7h-7zM2 2v5h5v-5zM11 2h1v2h-1v3h-1v1h1v2h1v2h1v-3h6v2h2v-2h1v7h-1v-1h-1v-1h-1v-2h-3v2h-1v-1h-2v1h-2v1h-1v1h-1v-3h2v-1h-1v-2h-1v3h-1v-1h-3v-1h-3v-1h3v-1h1v1h1v1h1v-1h-1v-1h2v-5h1v-1h1zM13 2h1v2h-1zM16 2v5h5v-5zM3 3h3v3h-3zM17 3h3v3h-3zM12 4h1v1h1v3h-1v-2h-1zM11 7h1v1h-1zM1 9h1v1h-1zM16 10v1h1v-1zM1 11h1v2h-1zM14 11v1h1v-1zM4 12h1v2h-2v-1h1zM20 12v1h1v-1zM7 13h1v1h-1zM13 14h1v1h-1zM17 14h1v1h1v1h-2zM1 15h7v7h-7zM12 15h1v2h-2v-1h1zM15 15h1v2h-2v-1h1zM2 16v5h5v-5zM3 17h3v3h-3zM9 17h1v1h-1zM13 17h1v2h-1zM16 17h1v1h-1zM18 17h3v1h1v1h-2v-1h-2zM10 18h1v2h1v-1h1v2h-1v1h-1v-1h-1zM17 20h1v1h-1zM21 20h1v2h-3v-1h2zM9 21h1v1h-1zM13 21h4v1h-4z"/></svg>