<svg xmlns="http://www.w3.org/2000/svg" viewBox="0 0 23 23"><path d="M1 1h7v7h-7zM9 1h2v1h-2zM12 1h1v1h-1zM15 1h7v7h-7zM2 2v5h5v-5zM11 2h1v2h1v1h1v3h-1v-2h-1v-1h-2v3h1v-2h1v5h-1v-1h-2v1h1v2h-1v1h-2v-1h1v-1h-1v-1h1v-1h-1v-1h2v-5h2zM13 2h1v2h-1zM16 2v5h5v-5zM3 3h3v3h-3zM17 3h3v3h-3zM1 9h1v1h-1zM5 9h1v1h1v1h-2v1h-1v-1h-1v1h1v1h-1v1h-2v-1h1v-1h-1v-1h1v-1h3zM13 9h6v2h2v-2h1v7h-1v-1h-1v-1h-1v-2h-3v-1h2v-1h-2v1h-1v-1h-1v1h1v1h1v1h-3v1h-1v1h1v2h-1v2h1v2h-2v-1h-1v-2h-1v-1h2v-1h-2v-2h2v-2h2zM5 12h2v1h-2zM20 12v1h1v-1zM13 14h1v1h-1zM17 14h1v1h1v3h1v-1h1v1h1v1h-2v2h1v-1h1v2h-3v-1h-2v-1h2v-1h-1v-1h-1v1h-1v-2h2v-1h-1zM1 15h7v7h-7zM15 15h1v2h-2v-1h1zM2 16v5h5v-5zM3 17h3v3h-3zM13 17h1v2h-1zM9 21h2v1h-2zM13 21h4v1h-4z"/></svg>