<svg xmlns="http://www.w3.org/2000/svg" viewBox="0 0 23 23"><path d="M1 1h7v7h-7zM12 1h2v2h-1v-1h-1zM15 1h7v7h-7zM2 2v5h5v-5zM16 2v5h5v-5zM3 3h3v3h-3zM9 3h4v1h1v6h1v-1h5v2h1v1h1v1h-2v1h-1v-2h-1v2h-1v1h1v1h-1v2h-1v-4h-1v-1h2v-2h-3v1h1v1h-1v4h1v1h-1v1h-1v-14h-1v-1h-2v1h1v2h-1v1h1v-1h1v3h-2v-1h-1zM17 3h3v3h-3zM1 9h1v1h-1zM3 9h5v1h-3v1h-1v2h1v1h-2v-3h-1v-1h1zM18 10v1h1v-1zM21 10h1v1h-1zM1 11h1v1h-1zM7 11h2v2h-1v-1h-1zM10 11h1v1h1v2h-2zM5 12h2v1h1v1h-2v-1h-1zM9 14h1v1h-1zM1 15h7v7h-7zM19 15h1v1h1v1h-1v1h-1zM21 15h1v1h-1zM2 16v5h5v-5zM9 16h1v1h1v-1h1v4h1v2h-2v-1h-1v-1h1v-1h-1v1h-1zM3 17h3v3h-3zM21 17h1v1h-1zM15 18h1v1h2v1h-1v1h-2v1h-1v-3h1zM18 18h1v1h-1zM19 19h1v1h-1zM18 20h1v1h-1zM21 20h1v1h-1zM9 21h1v1h-1zM17 21h1v1h-1zM19 21h1v1h-1z"/></svg>