<svg xmlns="http://www.w3.org/2000/svg" viewBox="0 0 23 23"><path d="M1 1h7v7h-7zM10 1h3v1h-2v1h-2v-1h1zM15 1h7v7h-7zM2 2v5h5v-5zM13 2h1v4h-1v1h-1v2h-1v-2h-1v-1h2v-1h1zM16 2v5h5v-5zM3 3h3v3h-3zM17 3h3v3h-3zM10 4h2v1h-2zM9 5h1v1h-1zM9 7h1v1h-1zM13 7h1v1h-1zM1 9h1v1h-1zM3 9h1v1h-1zM5 9h1v1h-1zM7 9h1v1h-1zM13 9h1v1h-1zM17 9h1v5h1v-2h1v-1h1v1h1v2h-1v-1h-1v1h1v1h-1v1h-1v-1h-1v1h1v2h-1v-1h-1v-1h-1v-1h-1v-1h2v-3h-1v1h-2v-1h1v-1h2zM20 9h1v1h-1zM6 10h1v1h-1zM8 10h3v2h-1v1h-2v-1h1v-1h-1zM12 10h1v2h1v1h-1v2h-1zM19 10h1v1h-1zM1 11h1v2h-1zM3 11h2v2h-1v-1h-1zM7 11h1v1h-1zM6 12h1v1h1v1h-3v-1h1zM3 13h1v1h-1zM14 13h1v1h-1zM9 14h2v1h1v1h-1v1h-1v-2h-1zM1 15h7v7h-7zM13 15h1v1h-1zM2 16v5h5v-5zM12 16h1v1h-1zM15 16h1v1h-1zM20 16h1v1h-1zM3 17h3v3h-3zM9 17h1v1h-1zM11 17h1v1h-1zM13 17h2v1h-2zM16 17h1v1h-1zM10 18h1v2h-2v-1h1zM12 18h1v1h-1zM15 18h1v1h1v1h-2zM20 18h1v1h-1zM13 19h1v1h-1zM18 19h1v1h2v-1h1v3h-1v-1h-1v1h-1v-1h-1zM12 20h1v1h-1zM14 20h1v1h-1zM9 21h1v1h-1zM11 21h1v1h-1zM13 21h1v1h-1zM15 21h3v1h-3z"/></svg>