<svg xmlns="http://www.w3.org/2000/svg" viewBox="0 0 23 23"><path d="M1 1h7v7h-7zM10 1h4v1h-1v1h1v1h-3v2h-2v-1h1v-2h2v-1h-2zM15 1h7v7h-7zM2 2v5h5v-5zM9 2h1v1h-1zM16 2v5h5v-5zM3 3h3v3h-3zM17 3h3v3h-3zM12 5h2v1h-1v1h-1v1h-1v-2h1zM9 7h1v1h-1zM13 7h1v1h-1zM1 9h1v2h-1zM3 9h1v3h-1zM5 9h1v1h1v1h1v1h-2v-1h-1zM7 9h1v1h-1zM10 9h1v1h-1zM13 9h1v1h-1zM17 9h1v1h1v1h1v-2h1v2h1v3h-1v-2h-2v1h-1v1h-2v-1h1zM8 10h1v1h-1zM11 10h2v2h2v1h-2v2h-1v-3h-1zM14 10h2v2h-1v-1h-1zM2 12h1v1h-1zM5 12h1v2h-3v-1h2zM8 12h2v1h-2zM7 13h1v1h-1zM19 13h1v1h1v1h-1v1h-1v-1h-1v-1h1zM9 14h1v1h-1zM14 14h1v1h-1zM1 15h7v7h-7zM10 15h2v1h-1v1h-1zM13 15h1v1h-1zM16 15h2v1h-1v1h-1zM21 15h1v1h-1zM2 16v5h5v-5zM12 16h1v1h-1zM14 16h1v1h1v3h-1v-2h-2v-1h1zM18 16h1v1h1v1h-2v3h-1v-4h1zM20 16h1v1h-1zM3 17h3v3h-3zM9 17h1v1h-1zM11 17h1v1h1v1h-2zM20 18h1v1h-1zM9 19h2v3h-2v-1h1v-1h-1zM13 19h1v1h-1zM21 19h1v3h-1v-1h-2v-1h2zM12 20h1v1h-1zM14 20h1v1h-1zM13 21h1v1h-1zM15 21h1v1h-1zM18 21h1v1h-1z"/></svg>