<svg xmlns="http://www.w3.org/2000/svg" viewBox="0 0 31 31"><path d="M1 1h7v7h-7zM10 1h1v1h-1zM13 1h2v1h-1v2h-2v2h-2v-1h-1v-3h1v1h1v-1h1v1h1zM19 1h1v1h-1zM23 1h7v7h-7zM2 2v5h5v-5zM15 2h1v1h-1zM17 2h2v1h-2zM21 2h1v1h-1zM24 2v5h5v-5zM3 3h3v3h-3zM19 3h1v1h-1zM25 3h3v3h-3zM14 4h2v1h-1v1h1v3h-1v-2h-1v2h-1v-4h1zM18 4h1v1h2v-1h1v4h-1v-2h-1v2h-1v-2h-1v3h-1v-4h1zM9 7h1v3h-1zM11 7h1v2h1v2h-2zM1 9h1v2h-1zM7 9h1v1h-1zM14 9h1v1h-1zM16 9h1v2h1v2h-1v-1h-1zM18 9h1v1h1v-1h4v1h-1v1h1v1h-1v1h-2v-1h1v-2h-1v1h-3zM26 9h3v2h-2v-1h-1zM3 10h2v1h1v1h1v1h1v1h-1v1h-1v-1h-1v1h-1v-2h1v-1h-1v1h-1v-1h-1v-1h1zM24 10h2v1h-2zM7 11h1v1h-1zM9 11h1v1h1v2h-2zM12 12h2v2h-1v-1h-1zM15 12h1v1h1v1h1v2h-1v2h1v-1h1v1h2v-1h-1v-1h3v1h-1v1h2v-2h1v-2h1v3h-1v1h2v-4h2v-1h1v2h-2v3h2v2h-1v-1h-5v1h-1v-1h-2v1h-1v-1h-1v1h-1v-1h-1v1h1v1h-3v-1h-1v1h-2v-1h1v-1h2v-1h1v-2h-2v-2h1v1h1v-1h-1zM24 12h1v2h-1v2h-1v-3h1zM1 13h2v2h1v1h-3zM20 13h1v1h1v1h-2v1h-1v-2h1zM5 15h1v1h-1zM7 15h2v1h-2zM11 15h1v1h-1zM4 16h1v1h4v1h-3v1h2v1h-1v1h-1v-1h-1v-2h-1v2h-2v2h-1v-4h1v1h1v-1h-1v-1h2zM9 16h2v1h-2zM12 16h1v1h2v1h-2v1h-2v-1h1zM29 16h1v1h-1zM9 18h1v1h-1zM4 20h1v2h-1zM8 20h1v1h1v-1h1v1h1v2h1v-1h5v-1h1v-1h1v3h-1v1h-1v3h1v-1h1v2h-3v1h-1v-1h-1v-1h1v-1h1v-2h-2v3h-1v-1h-1v-1h-1v1h-1v-3h-2v-1h-2v-1h1zM22 20h1v1h2v-1h1v2h1v1h1v1h-1v1h-1v1h-1v1h1v1h2v2h-1v-1h-1v1h-4v-1h1v-2h1v-1h-1v1h-1v-1h-2v-1h-1v-1h1v-1h1v-2h1zM27 21h3v1h-3zM22 22v3h3v-3zM1 23h7v7h-7zM23 23h1v1h-1zM2 24v5h5v-5zM28 24h1v2h-1zM3 25h3v3h-3zM10 26h1v1h-1zM12 26h1v1h-1zM26 26h1v1h-1zM29 26h1v1h-1zM11 27h1v1h-1zM13 27h1v1h1v1h1v1h-3zM28 27h1v1h-1zM10 28h1v2h-2v-1h1zM20 28h1v2h-1zM29 28h1v1h-1zM18 29h1v1h-1z"/></svg>